<svg version="1.1" id="Layer_1" xmlns="http://www.w3.org/2000/svg" xmlns:xlink="http://www.w3.org/1999/xlink" x="0px" y="0px"
	 width="100%" viewBox="0 0 512 512" enable-background="new 0 0 512 512" xml:space="preserve">
<path fill="#F98E3C" opacity="1.000000" stroke="none" 
	d="
M364.001099,257.159637 
	C370.639160,267.978302 376.279114,279.151764 379.131653,291.715759 
	C382.406494,306.139862 380.444092,319.873474 375.208527,333.345673 
	C368.410767,350.837891 357.214142,365.389099 344.551300,379.001709 
	C321.780762,403.480011 294.961517,422.815094 266.435852,439.756470 
	C234.927353,458.469330 201.526611,473.328766 166.345566,483.651428 
	C151.758453,487.931519 136.589096,490.449341 121.537628,492.846008 
	C111.661003,494.418701 101.477661,495.254486 91.509911,494.779266 
	C77.512550,494.112000 63.792202,491.592743 51.653713,483.390594 
	C41.657726,476.636230 35.859425,467.062805 32.160561,456.169647 
	C26.643812,439.922791 26.689566,422.806671 28.363636,406.180450 
	C30.180780,388.133270 33.745869,370.088379 38.421562,352.541534 
	C46.372971,322.701721 58.122280,294.135956 72.198906,266.654755 
	C84.374481,242.884903 98.206596,220.014786 114.733482,198.985428 
	C122.870598,188.631485 131.693359,178.672623 141.197403,169.570282 
	C155.612808,155.764145 171.409576,143.787170 191.058838,137.885483 
	C207.479584,132.953476 223.367462,133.956818 238.675690,141.402618 
	C246.103058,145.015213 253.060974,149.592987 260.733093,154.144775 
	C271.773773,163.129196 282.312805,171.702682 293.028412,180.551285 
	C308.368164,195.937271 323.531342,211.048157 338.851196,226.459763 
	C343.641388,232.214951 348.337555,237.617828 352.889099,243.139893 
	C356.681152,247.740540 360.303558,252.481049 364.001099,257.159637 
M250.086288,359.773163 
	C253.925171,360.390869 257.049469,359.404907 258.848877,355.701843 
	C260.684875,351.923492 259.069061,348.814819 256.506439,346.208832 
	C247.628799,337.181030 238.673523,328.228546 229.670120,319.325958 
	C225.514603,315.216949 220.636047,314.917603 217.336258,318.326080 
	C214.100555,321.668365 214.545807,325.867310 218.801407,330.165527 
	C227.475555,338.926483 236.199127,347.639008 244.967224,356.305847 
	C246.244400,357.568268 247.878769,358.469330 250.086288,359.773163 
M154.980835,361.253387 
	C154.212509,358.958435 154.084976,356.049774 152.570953,354.469025 
	C143.354172,344.845764 133.926559,335.416382 124.344986,326.154358 
	C120.356018,322.298462 116.025703,322.538361 112.841431,326.045898 
	C110.092979,329.073364 110.373451,333.651306 113.909416,337.247742 
	C123.020035,346.514282 132.172745,355.743225 141.481400,364.809784 
	C146.587784,369.783386 151.739655,368.579102 154.980835,361.253387 
M204.001831,226.498169 
	C199.283829,221.789261 194.605240,217.039993 189.835815,212.383743 
	C185.756531,208.401291 180.984558,207.891479 177.904999,210.963837 
	C174.831329,214.030304 175.327087,218.928238 179.228470,222.852158 
	C188.158188,231.833466 197.110489,240.792633 206.098267,249.715820 
	C210.051331,253.640472 214.179092,253.988831 217.487228,250.838715 
	C220.838394,247.647614 220.684677,243.415604 216.843719,239.401031 
	C212.812485,235.187607 208.622482,231.126053 204.001831,226.498169 
z"/>
<path fill="#6EC61C" opacity="1.000000" stroke="none" 
	d="
M338.694550,226.159042 
	C323.531342,211.048157 308.368164,195.937271 293.211426,180.238220 
	C311.749115,149.847549 330.598297,120.236526 348.702179,90.176659 
	C361.215332,69.399750 379.489960,59.785572 403.120026,58.942570 
	C417.305756,59.634750 429.873505,64.077278 440.530640,73.899033 
	C452.074768,84.538239 459.160187,97.164452 460.022888,113.916862 
	C460.726959,139.726303 449.837799,158.050812 428.733185,170.911774 
	C407.874329,183.622986 387.282074,196.770905 366.499634,209.608688 
	C357.324493,215.276367 347.968445,220.651245 338.694550,226.159042 
z"/>
<path fill="#60AC18" opacity="1.000000" stroke="none" 
	d="
M403.071075,58.559620 
	C379.489960,59.785572 361.215332,69.399750 348.702179,90.176659 
	C330.598297,120.236526 311.749115,149.847549 293.034851,179.963104 
	C282.312805,171.702682 271.773773,163.129196 261.049225,154.267380 
	C269.617096,124.661430 278.368713,95.343307 287.124756,66.026489 
	C290.639465,54.258461 295.072235,43.001591 304.233429,34.252312 
	C326.398712,13.083643 359.285278,11.130901 383.468567,29.941395 
	C392.957275,37.321991 399.645416,46.589485 403.071075,58.559620 
z"/>
<path fill="#60AC18" opacity="1.000000" stroke="none" 
	d="
M338.851196,226.459763 
	C347.968445,220.651245 357.324493,215.276367 366.499634,209.608688 
	C387.282074,196.770905 407.874329,183.622986 428.733185,170.911774 
	C449.837799,158.050812 460.726959,139.726303 460.046692,114.347534 
	C483.519196,121.958481 496.293640,138.649780 500.067566,162.904999 
	C503.060181,182.138824 496.345093,198.210403 484.022461,212.174469 
	C477.169586,219.940201 467.803040,224.577377 458.047150,227.827667 
	C444.998199,232.175095 431.741913,235.896408 418.609650,239.998596 
	C400.641510,245.611374 382.706268,251.329407 364.379028,257.080994 
	C360.303558,252.481049 356.681152,247.740540 352.889099,243.139893 
	C348.337555,237.617828 343.641388,232.214951 338.851196,226.459763 
z"/>
<path fill="#BB6B2D" opacity="1.000000" stroke="none" 
	d="
M249.717072,359.655396 
	C247.878769,358.469330 246.244400,357.568268 244.967224,356.305847 
	C236.199127,347.639008 227.475555,338.926483 218.801407,330.165527 
	C214.545807,325.867310 214.100555,321.668365 217.336258,318.326080 
	C220.636047,314.917603 225.514603,315.216949 229.670120,319.325958 
	C238.673523,328.228546 247.628799,337.181030 256.506439,346.208832 
	C259.069061,348.814819 260.684875,351.923492 258.848877,355.701843 
	C257.049469,359.404907 253.925171,360.390869 249.717072,359.655396 
z"/>
<path fill="#BB6B2D" opacity="1.000000" stroke="none" 
	d="
M154.939560,361.645447 
	C151.739655,368.579102 146.587784,369.783386 141.481400,364.809784 
	C132.172745,355.743225 123.020035,346.514282 113.909416,337.247742 
	C110.373451,333.651306 110.092979,329.073364 112.841431,326.045898 
	C116.025703,322.538361 120.356018,322.298462 124.344986,326.154358 
	C133.926559,335.416382 143.354172,344.845764 152.570953,354.469025 
	C154.084976,356.049774 154.212509,358.958435 154.939560,361.645447 
z"/>
<path fill="#BA6A2D" opacity="1.000000" stroke="none" 
	d="
M204.251862,226.748138 
	C208.622482,231.126053 212.812485,235.187607 216.843719,239.401031 
	C220.684677,243.415604 220.838394,247.647614 217.487228,250.838715 
	C214.179092,253.988831 210.051331,253.640472 206.098267,249.715820 
	C197.110489,240.792633 188.158188,231.833466 179.228470,222.852158 
	C175.327087,218.928238 174.831329,214.030304 177.904999,210.963837 
	C180.984558,207.891479 185.756531,208.401291 189.835815,212.383743 
	C194.605240,217.039993 199.283829,221.789261 204.251862,226.748138 
z"/>
</svg>